<svg xmlns="http://www.w3.org/2000/svg" style="position:absolute; width: 0; height: 0"><symbol viewBox="0 0 512 512" id="icon-instagram"><path d="M352 0H160C71.648 0 0 71.648 0 160v192c0 88.352 71.648 160 160 160h192c88.352 0 160-71.648 160-160V160C512 71.648 440.352 0 352 0zm112 352c0 61.76-50.24 112-112 112H160c-61.76 0-112-50.24-112-112V160C48 98.24 98.24 48 160 48h192c61.76 0 112 50.24 112 112v192z"></path><path d="M256 128c-70.688 0-128 57.312-128 128s57.312 128 128 128 128-57.312 128-128-57.312-128-128-128zm0 208c-44.096 0-80-35.904-80-80 0-44.128 35.904-80 80-80s80 35.872 80 80c0 44.096-35.904 80-80 80z"></path><circle cx="393.6" cy="118.4" r="17.056"></circle></symbol><symbol viewBox="0 0 579 144" id="icon-zuma"><path d="M77.607 23.519H4.01c-.779 0-1.417-.64-1.417-1.422V2.736A1.42 1.42 0 0 1 4.01 1.314h113.203c1.131 0 1.806 1.263 1.182 2.208L40.026 121.211h73.964c.779 0 1.417.641 1.417 1.423v19.361c0 .785-.634 1.421-1.417 1.421H1.42c-1.13 0-1.806-1.262-1.182-2.208L77.607 23.519zm61.966 64.665V2.788c0-.783.635-1.418 1.417-1.418h4.368c9.393 0 17.007 7.615 17.007 17.008v67.471c0 24.237 13.008 35.133 35.021 35.133 21.791 0 34.799-10.896 34.799-35.133V18.378c0-9.393 7.615-17.008 17.008-17.008h4.367c.783 0 1.417.635 1.417 1.418v85.396c0 36.911-24.904 55.284-57.591 55.284-32.909 0-57.813-18.373-57.813-55.284zm213.888 27.929l-51.298-57.928v82.791c0 .783-.635 1.417-1.417 1.417h-19.624a1.416 1.416 0 0 1-1.417-1.417V1.419c0-1.32 1.648-1.923 2.5-.913l72.435 84.778L426.18.548c.848-1.018 2.506-.418 2.506.907v139.521c0 .783-.635 1.417-1.418 1.417h-19.623a1.417 1.417 0 0 1-1.418-1.417V58.185l-50.637 57.922a1.418 1.418 0 0 1-2.129.006zm158.947-64.882l-42.045 90.806a2.404 2.404 0 0 1-2.178 1.384h-18.696c-1.763 0-2.927-1.832-2.177-3.425L510.35 2.709c.859-1.857 3.499-1.861 4.364-.005l63.443 137.286c.756 1.595-.408 3.43-2.174 3.43h-19.79a2.404 2.404 0 0 1-2.182-1.392L512.408 51.23z" fill-rule="evenodd"></path></symbol></svg>