<svg xmlns="http://www.w3.org/2000/svg" style="position:absolute; width: 0; height: 0"><symbol viewBox="0 0 47.971 47.971" id="icon-close"><path d="M28.228 23.986L47.092 5.122a2.998 2.998 0 0 0 0-4.242 2.998 2.998 0 0 0-4.242 0L23.986 19.744 5.121.88a2.998 2.998 0 0 0-4.242 0 2.998 2.998 0 0 0 0 4.242l18.865 18.864L.879 42.85a2.998 2.998 0 1 0 4.242 4.241l18.865-18.864L42.85 47.091c.586.586 1.354.879 2.121.879s1.535-.293 2.121-.879a2.998 2.998 0 0 0 0-4.242L28.228 23.986z"></path></symbol><symbol id="icon-zuma-logo"><path d="M77.607 23.519H4.01c-.779 0-1.417-.64-1.417-1.422V2.736A1.42 1.42 0 0 1 4.01 1.314h113.203c1.131 0 1.806 1.263 1.182 2.208L40.026 121.211h73.964c.779 0 1.417.641 1.417 1.423v19.361c0 .785-.634 1.421-1.417 1.421H1.42c-1.13 0-1.806-1.262-1.182-2.208L77.607 23.519zm61.966 64.665V2.788c0-.783.635-1.418 1.417-1.418h4.368c9.393 0 17.007 7.615 17.007 17.008v67.471c0 24.237 13.008 35.133 35.021 35.133 21.791 0 34.799-10.896 34.799-35.133V18.378c0-9.393 7.615-17.008 17.008-17.008h4.367c.783 0 1.417.635 1.417 1.418v85.396c0 36.911-24.904 55.284-57.591 55.284-32.909 0-57.813-18.373-57.813-55.284m213.888 27.929l-51.298-57.928v82.791c0 .783-.635 1.417-1.417 1.417h-19.624a1.416 1.416 0 0 1-1.417-1.417V1.419c0-1.32 1.648-1.923 2.5-.913l72.435 84.778L426.18.548c.848-1.018 2.506-.418 2.506.907v139.521c0 .783-.635 1.417-1.418 1.417h-19.623a1.417 1.417 0 0 1-1.418-1.417V58.185l-50.637 57.922a1.418 1.418 0 0 1-2.129.006m158.947-64.882l-42.045 90.806a2.404 2.404 0 0 1-2.178 1.384h-18.696c-1.763 0-2.927-1.832-2.177-3.425L510.35 2.709c.859-1.857 3.499-1.861 4.364-.005l63.443 137.286c.756 1.595-.408 3.43-2.174 3.43h-19.79a2.404 2.404 0 0 1-2.182-1.392L512.408 51.23z" fill-rule="evenodd"></path></symbol></svg>