<svg width="45" height="45" viewBox="0 0 45 45" xmlns="http://www.w3.org/2000/svg">
  <path d="M44.4249 22.2368c0 12.2457-9.9415 22.187-22.1875 22.187S.0499 34.4825.0499 22.2368C.0499 9.9911 9.9914.0498 22.2374.0498s22.1875 9.9413 22.1875 22.187zm-2 0c0-11.1411-9.046-20.187-20.1875-20.187-11.1414 0-20.1875 9.0459-20.1875 20.187 0 11.1411 9.046 20.187 20.1875 20.187 11.1414 0 20.1875-9.0459 20.1875-20.187zm-10.2305-4.6015l.001-5.526h-5.524c-1.152 0-2.084.932-2.084 2.083h4.051l-3.734 3.735 1.473 1.473 3.733-3.733v4.051c1.15 0 2.084-.932 2.084-2.083m-20.0908 9.0405l-.001 5.526h5.524c1.151 0 2.084-.932 2.084-2.083h-4.052l3.735-3.735-1.474-1.473-3.733 3.733.001-4.051c-1.151 0-2.084.932-2.084 2.083m14.5654 5.5254h5.526v-5.524c0-1.151-.932-2.083-2.083-2.083v4.052l-3.735-3.736-1.473 1.474 3.734 3.733h-4.052c0 1.151.933 2.084 2.083 2.084m-9.04-20.0913h-5.527v5.524c0 1.151.933 2.083 2.084 2.083v-4.052l3.734 3.736 1.474-1.474-3.734-3.733h4.052c0-1.151-.933-2.084-2.083-2.084"  fill-rule="nonzero"/>
</svg>
